<svg width="438" height="1061" viewBox="0 0 438 1061" fill="none" xmlns="http://www.w3.org/2000/svg">
<path fill-rule="evenodd" clip-rule="evenodd" d="M0 817.79H437.32V1036.01L398.479 1060.3L398.585 1060.43L37.4285 1060.43L0 1033.06L0 817.79Z" fill="#E9DBCA"/>
<path d="M122.36 792.335C96.0828 810.365 30.5328 817.11 1.04245 818.229H435.485C364.325 818.229 312.329 800.966 295.226 792.335C212.989 723.284 155.207 769.798 122.36 792.335Z" fill="#E9DBCA"/>
<path d="M162.324 1032.18L99.8026 1031.54L74.2898 936.641C58.128 927.142 37.3666 943.395 29.0061 952.709C26.2795 940.495 43.4474 923.795 52.3722 916.971C49.0996 909.592 40.6992 892.48 33.2787 883.07C25.8582 873.66 9.67044 878.94 2.50411 882.757C32.7528 839.246 76.7343 878.867 94.944 904.116C121.687 882.481 150.351 894.572 163.5 904.814L163.62 904.815C178.093 883.356 214.158 847.704 242.632 876.774L249.997 885.276C243.442 882.076 233.353 878.236 227.528 882.043C219.14 884.962 204.85 896.484 199.442 918.468C211.21 918.804 236.164 926.556 241.837 954.875C229.521 943.406 200.421 923.923 182.542 937.742L162.324 1032.18Z" fill="#D16AA8"/>
<path d="M93.9211 955.747C104.041 940.747 132.483 919.328 165.298 953.648C154.671 965.453 125.517 982.399 93.9211 955.747Z" stroke="black" stroke-width="5"/>
<circle cx="129.235" cy="952.535" r="17.3864" transform="rotate(-1.68414 129.235 952.535)" fill="black"/>
<path d="M227 0.5L211.5 756" stroke="#A46969" stroke-width="10"/>
</svg>
