<svg width="308" height="1155" viewBox="0 0 308 1155" fill="none" xmlns="http://www.w3.org/2000/svg">
<path d="M151.991 1.00003L159.054 633.764" stroke="#A46969" stroke-width="10"/>
<rect x="24.1826" y="679.05" width="261.579" height="434.615" transform="rotate(0.285478 24.1826 679.05)" fill="#E9DBCA"/>
<circle cx="154.662" cy="741.681" r="108.527" transform="rotate(0.285478 154.662 741.681)" fill="#E9DBCA"/>
<circle cx="153.152" cy="1044.74" r="108.527" transform="rotate(0.285478 153.152 1044.74)" fill="#E9DBCA"/>
<rect x="2.32361" y="699.686" width="305.091" height="393.633" transform="rotate(0.285478 2.32361 699.686)" fill="#E9DBCA"/>
<path d="M132.888 782.672L153.921 807.735L176.929 784.471L185.949 815.923L216.43 804.028L211.878 836.429L244.562 837.96L227.225 865.709L256.46 880.401L229.335 898.7L250.067 924.013L217.845 929.696L226.488 961.253L194.741 953.34L189.801 985.684L164.017 965.542L146.349 993.081L130.987 964.192L103.645 982.164L101.361 949.525L69.073 954.822L80.2617 924.076L48.6109 915.782L71.3381 892.245L45.7968 871.795L76.1328 859.536L61.1172 830.466L93.8166 831.606L91.9232 798.941L121.332 813.283L132.888 782.672Z" fill="#D57E40"/>
<path d="M95.1592 891.338C112.404 868.814 158.927 837.963 207.061 894.753C189.321 912.23 142.104 936.015 95.1592 891.338Z" stroke="black" stroke-width="6"/>
<circle cx="150.729" cy="889.625" r="27.2584" transform="rotate(1.7482 150.729 889.625)" fill="black"/>
</svg>
