<svg width="294" height="453" viewBox="0 0 294 453" fill="none" xmlns="http://www.w3.org/2000/svg">
<rect x="16.4443" y="1.26416" width="255.209" height="450.758" rx="127.604" transform="rotate(-0.0620217 16.4443 1.26416)" fill="#E9DBCA"/>
<path d="M1.02637 47.1299L292.693 46.8142L268.337 255.095L20.5858 255.364L1.02637 47.1299Z" fill="#E9DBCA"/>
<path d="M122.04 133.467L143.67 154.259L162.369 130.796L173.673 158.588L200.298 144.759L199.321 174.746L229.269 172.943L216.179 199.939L244.272 210.473L221.333 229.811L242.713 250.86L213.891 259.197L224.861 287.122L195.141 283.015L193.804 312.988L168.323 297.148L154.911 323.986L138.076 299.151L114.907 318.213L109.629 288.679L80.7103 296.669L87.9015 267.541L58.2325 263.078L76.6494 239.393L51.3605 223.249L77.8188 209.103L61.2827 184.068L91.2075 181.906L86.2835 152.31L114.5 162.507L122.04 133.467Z" fill="#D57E40"/>
<path d="M103.953 231.797C117.43 212.124 155.114 184.162 198.039 229.698C183.923 245.156 145.344 267.217 103.953 231.797Z" stroke="black" stroke-width="6"/>
<circle cx="150.525" cy="227.893" r="22.9136" transform="rotate(-1.27819 150.525 227.893)" fill="black"/>
</svg>
