<svg width="467" height="589" viewBox="0 0 467 589" fill="none" xmlns="http://www.w3.org/2000/svg">
<path d="M72.6335 207.497C73.0117 118.581 145.4 46.3333 234.317 46.1277C323.233 45.922 395.008 117.836 394.63 206.753L393.203 542.255L71.2063 542.999L72.6335 207.497Z" fill="#E9DBCA"/>
<path d="M236.489 241.649L235.25 403.473C200.505 379.952 134.377 319.141 147.819 264.057C161.261 208.974 212.533 226.167 236.489 241.649Z" fill="#A02929"/>
<path d="M234.622 241.653L233.383 403.547C267.291 380.081 332.069 319.367 319.917 264.236C307.764 209.105 257.99 226.209 234.622 241.653Z" fill="#A02929"/>
<path d="M184.175 312.027C199.182 290.545 241.116 259.901 288.794 309.181C273.08 326.082 230.157 350.312 184.175 312.027Z" stroke="black" stroke-width="6"/>
<ellipse rx="25.4458" ry="24.9603" transform="matrix(1.00106 -0.0272323 0.021717 0.99828 235.963 307.503)" fill="black"/>
</svg>
