<svg width="201" height="428" viewBox="0 0 201 428" fill="none" xmlns="http://www.w3.org/2000/svg">
<path d="M16.5773 414.273L0 12.3543C78.7423 -10.0205 166.809 3.03146 201 12.3543L178.206 414.273C115.212 439.134 44.2062 424.632 16.5773 414.273Z" fill="#BBD6D8"/>
<path d="M31.9072 410L19 78.3074C28.5105 78.3074 31.9072 99.378 62.4768 78.3074C86.9325 61.4508 151.015 71.2838 180 78.3074L161.658 410H31.9072Z" fill="#C25FAD"/>
<ellipse cx="116" cy="303" rx="38" ry="34" fill="#C84C4C"/>
<path d="M131.399 171.124L115.542 284.284C115.193 286.776 117.128 289 119.643 289C121.713 289 123.464 287.472 123.746 285.422L139.716 169.078C139.898 167.753 139.541 166.411 138.726 165.351L135.216 160.784C123.255 144.601 95.7439 154.559 87.3712 160.784C80.673 165.763 89.9244 172.873 93.5127 173.703C116.613 158.909 126.581 162.238 130.761 168.104C131.38 168.973 131.547 170.067 131.399 171.124Z" fill="#543535"/>
</svg>
