<svg width="312" height="554" viewBox="0 0 312 554" fill="none" xmlns="http://www.w3.org/2000/svg">
<circle cx="217.06" cy="94.681" r="94.681" fill="#DE962B"/>
<circle cx="217.752" cy="95.3722" r="82.9322" fill="#FDF0CF"/>
<path d="M220.299 26.2622H211.288C200.567 26.2622 193.308 37.1822 197.456 47.0672L217.73 95.3724L234.499 46.0945C237.811 36.3646 230.577 26.2622 220.299 26.2622Z" fill="#E9C74F"/>
<path d="M272.014 49.1629L265.701 42.732C258.191 35.0815 245.313 37.5502 241.165 47.4354L220.894 95.7417L267.808 73.1896C277.071 68.7367 279.213 56.4977 272.014 49.1629Z" fill="#E9C74F"/>
<path d="M215.203 168.629H224.214C234.935 168.629 242.194 157.709 238.045 147.824L217.772 99.5187L201.003 148.797C197.691 158.526 204.925 168.629 215.203 168.629Z" fill="#E9C74F"/>
<path d="M267.362 150.171L273.78 143.845C281.415 136.32 278.92 123.447 269.026 119.319L220.679 99.1464L243.327 146.014C247.798 155.268 260.042 157.386 267.362 150.171Z" fill="#E9C74F"/>
<path d="M291.008 100.685V91.6734C291.008 80.9531 280.088 73.6935 270.203 77.8422L221.898 98.116L271.175 114.885C280.905 118.196 291.008 110.963 291.008 100.685Z" fill="#E9C74F"/>
<path d="M144.494 95.5881V104.6C144.494 115.32 155.414 122.579 165.299 118.431L213.604 98.1569L164.326 81.3878C154.597 78.0767 144.494 85.3102 144.494 95.5881Z" fill="#E9C74F"/>
<path d="M164.971 146.922L171.401 153.236C179.051 160.747 191.881 158.041 195.847 148.081L215.224 99.4092L168.733 122.822C159.554 127.445 157.637 139.722 164.971 146.922Z" fill="#E9C74F"/>
<path d="M167.602 45.3987L161.332 51.8715C153.873 59.5717 156.666 72.3838 166.653 76.2813L215.455 95.3275L191.727 48.9973C187.042 39.8494 174.753 38.0163 167.602 45.3987Z" fill="#E9C74F"/>
<path d="M16.9897 528.081L0 120.528C80.701 97.839 170.959 111.074 206 120.528L182.639 528.081C118.078 553.29 45.3058 538.585 16.9897 528.081Z" fill="#BBD6D8"/>
<rect x="67" y="245" width="55" height="51" rx="3" fill="white"/>
<path d="M33.875 554L16 214.347C24.8 178.449 50.8333 229.305 62.75 259.22C89.3026 301.199 135.972 264.086 164.992 232.921C170.268 227.255 180.287 231.131 179.958 238.866L166.562 554H33.875Z" fill="#BF2F5A"/>
<rect x="112" y="281" width="53" height="51" rx="3" fill="white"/>
</svg>
