<svg width="747" height="612" viewBox="0 0 747 612" fill="none" xmlns="http://www.w3.org/2000/svg">
<path fill-rule="evenodd" clip-rule="evenodd" d="M431.618 13.6685L424.037 0.55957L341.555 48.2609H341.451V48.3211L341.451 48.3212L341.451 48.3216V287.525H356.594V57.0567L431.618 13.6685Z" fill="#C56C6C"/>
<path d="M230.33 576.401L214 178.239C291.567 156.073 378.32 169.003 412 178.239L389.546 576.401C327.493 601.03 257.546 586.663 230.33 576.401Z" fill="#BBD6D8"/>
<rect x="279" y="300" width="53" height="49" rx="3" fill="white"/>
<path d="M246.442 602L229 271.031C237.587 236.051 262.989 285.607 274.617 314.757C300.402 355.468 345.631 319.84 373.975 289.564C379.264 283.914 389.287 287.793 388.957 295.525L375.913 602H246.442Z" fill="#A93636"/>
<rect x="323" y="336" width="51" height="49" rx="3" fill="white"/>
<path d="M637.453 473.615L727.275 474.236L726.804 542.41L636.982 541.789C622.024 539.792 581.942 544.817 541.271 580.898C490.432 625.998 440.064 602.924 423.261 597.126C406.459 591.328 181.943 584.095 108.845 600.634C50.3662 613.865 20.8809 601.919 13.4481 594.293C-8.59886 535.053 5.09988 448.411 14.7051 412.495C14.7575 404.92 33.918 394.447 110.141 413.154C205.42 436.539 385.221 415.057 424.558 409.647C463.894 404.238 508.884 393.186 542.331 427.506C569.089 454.962 616.895 469.685 637.453 473.615Z" fill="#3C4596"/>
<path d="M33.4482 588.716C24.068 578.577 19.2575 565.741 17.1929 556.939C16.484 553.917 19.5048 551.484 22.5028 552.29C84.7475 569.017 395.224 553.741 560.071 542.864C562.355 542.713 563.13 546.285 561.093 547.327C528.811 563.834 521.395 586.53 521.998 596.725C364.293 599.617 45.7961 602.064 33.4482 588.716Z" fill="#A93636"/>
<path fill-rule="evenodd" clip-rule="evenodd" d="M674.845 547.336C674.845 545.518 673.462 544.022 671.691 543.842C673.422 537.47 679.248 532.784 686.168 532.784H731.532C738.452 532.784 744.278 537.47 746.009 543.842C744.237 544.022 742.855 545.517 742.855 547.336C742.855 549.276 744.428 550.849 746.368 550.849H746.532V555.867H746.368C744.428 555.867 742.855 557.44 742.855 559.38C742.855 561.32 744.428 562.893 746.368 562.893H746.532V568.915H746.368C744.428 568.915 742.855 570.487 742.855 572.427C742.855 574.367 744.428 575.94 746.368 575.94H746.532V585.976H671.168V575.94H671.332C673.272 575.94 674.845 574.367 674.845 572.427C674.845 570.487 673.272 568.915 671.332 568.915H671.168V562.892H671.332C673.272 562.892 674.845 561.32 674.845 559.38C674.845 557.44 673.272 555.867 671.332 555.867H671.168V550.849H671.332C673.272 550.849 674.845 549.276 674.845 547.336Z" fill="#A03939"/>
<path d="M671.168 536.762C671.168 531.239 675.645 526.762 681.168 526.762H736.532C742.055 526.762 746.532 531.239 746.532 536.762V543.824H671.168V536.762Z" fill="#A95858"/>
</svg>
